<mxfile host="app.diagrams.net" modified="2021-04-19T17:10:37.155Z" agent="5.0 (Windows NT 10.0; Win64; x64) AppleWebKit/537.36 (KHTML, like Gecko) Chrome/90.0.4430.72 Safari/537.36" etag="yove77_HOAsMw-2bJCRx" version="14.6.1" type="github">
  <diagram id="Gxb-hHPVRK7PmnjytyCn" name="task_1">
    <mxGraphModel dx="2436" dy="412" grid="1" gridSize="10" guides="1" tooltips="1" connect="1" arrows="1" fold="1" page="1" pageScale="1" pageWidth="1654" pageHeight="2336" math="0" shadow="0">
      <root>
        <mxCell id="0" />
        <mxCell id="1" parent="0" />
        <mxCell id="f1yLZGMJBaioODku0iaD-28" style="edgeStyle=orthogonalEdgeStyle;rounded=0;orthogonalLoop=1;jettySize=auto;html=1;exitX=0.5;exitY=1;exitDx=0;exitDy=0;entryX=0.5;entryY=0;entryDx=0;entryDy=0;" edge="1" parent="1" source="f1yLZGMJBaioODku0iaD-1" target="f1yLZGMJBaioODku0iaD-3">
          <mxGeometry relative="1" as="geometry" />
        </mxCell>
        <mxCell id="f1yLZGMJBaioODku0iaD-1" value="Начало" style="ellipse;whiteSpace=wrap;html=1;" vertex="1" parent="1">
          <mxGeometry x="290" y="20" width="220" height="80" as="geometry" />
        </mxCell>
        <mxCell id="f1yLZGMJBaioODku0iaD-29" style="edgeStyle=orthogonalEdgeStyle;rounded=0;orthogonalLoop=1;jettySize=auto;html=1;exitX=0.5;exitY=1;exitDx=0;exitDy=0;entryX=0.5;entryY=0;entryDx=0;entryDy=0;" edge="1" parent="1" source="f1yLZGMJBaioODku0iaD-3" target="f1yLZGMJBaioODku0iaD-4">
          <mxGeometry relative="1" as="geometry" />
        </mxCell>
        <mxCell id="f1yLZGMJBaioODku0iaD-3" value="operations={&quot;+&quot;,&quot;-&quot;,&quot;*&quot;,&quot;/&quot;}" style="rounded=0;whiteSpace=wrap;html=1;" vertex="1" parent="1">
          <mxGeometry x="290" y="130" width="220" height="60" as="geometry" />
        </mxCell>
        <mxCell id="f1yLZGMJBaioODku0iaD-30" style="edgeStyle=orthogonalEdgeStyle;rounded=0;orthogonalLoop=1;jettySize=auto;html=1;exitX=0.5;exitY=1;exitDx=0;exitDy=0;entryX=0.5;entryY=0;entryDx=0;entryDy=0;" edge="1" parent="1" source="f1yLZGMJBaioODku0iaD-4" target="f1yLZGMJBaioODku0iaD-5">
          <mxGeometry relative="1" as="geometry" />
        </mxCell>
        <mxCell id="f1yLZGMJBaioODku0iaD-4" value="true" style="rhombus;whiteSpace=wrap;html=1;" vertex="1" parent="1">
          <mxGeometry x="290" y="210" width="220" height="80" as="geometry" />
        </mxCell>
        <mxCell id="f1yLZGMJBaioODku0iaD-31" style="edgeStyle=orthogonalEdgeStyle;rounded=0;orthogonalLoop=1;jettySize=auto;html=1;exitX=0.5;exitY=1;exitDx=0;exitDy=0;entryX=0.5;entryY=0;entryDx=0;entryDy=0;" edge="1" parent="1" source="f1yLZGMJBaioODku0iaD-5" target="f1yLZGMJBaioODku0iaD-6">
          <mxGeometry relative="1" as="geometry" />
        </mxCell>
        <mxCell id="f1yLZGMJBaioODku0iaD-5" value="Вывод:&lt;br&gt;&quot;Введите&amp;nbsp; операцию&quot;" style="shape=parallelogram;perimeter=parallelogramPerimeter;whiteSpace=wrap;html=1;fixedSize=1;" vertex="1" parent="1">
          <mxGeometry x="290" y="320" width="220" height="70" as="geometry" />
        </mxCell>
        <mxCell id="f1yLZGMJBaioODku0iaD-32" style="edgeStyle=orthogonalEdgeStyle;rounded=0;orthogonalLoop=1;jettySize=auto;html=1;exitX=0.5;exitY=1;exitDx=0;exitDy=0;entryX=0.5;entryY=0;entryDx=0;entryDy=0;" edge="1" parent="1" source="f1yLZGMJBaioODku0iaD-6" target="f1yLZGMJBaioODku0iaD-7">
          <mxGeometry relative="1" as="geometry" />
        </mxCell>
        <mxCell id="f1yLZGMJBaioODku0iaD-6" value="Ввод:&lt;br&gt;op" style="shape=parallelogram;perimeter=parallelogramPerimeter;whiteSpace=wrap;html=1;fixedSize=1;" vertex="1" parent="1">
          <mxGeometry x="290" y="430" width="220" height="70" as="geometry" />
        </mxCell>
        <mxCell id="f1yLZGMJBaioODku0iaD-48" style="edgeStyle=orthogonalEdgeStyle;rounded=0;orthogonalLoop=1;jettySize=auto;html=1;exitX=0;exitY=0.5;exitDx=0;exitDy=0;" edge="1" parent="1" source="f1yLZGMJBaioODku0iaD-7" target="f1yLZGMJBaioODku0iaD-14">
          <mxGeometry relative="1" as="geometry" />
        </mxCell>
        <mxCell id="f1yLZGMJBaioODku0iaD-66" style="edgeStyle=orthogonalEdgeStyle;rounded=0;orthogonalLoop=1;jettySize=auto;html=1;exitX=1;exitY=0.5;exitDx=0;exitDy=0;entryX=0.5;entryY=0;entryDx=0;entryDy=0;" edge="1" parent="1" source="f1yLZGMJBaioODku0iaD-7" target="f1yLZGMJBaioODku0iaD-63">
          <mxGeometry relative="1" as="geometry" />
        </mxCell>
        <mxCell id="f1yLZGMJBaioODku0iaD-7" value="op in operations" style="rhombus;whiteSpace=wrap;html=1;" vertex="1" parent="1">
          <mxGeometry x="275" y="540" width="250" height="110" as="geometry" />
        </mxCell>
        <mxCell id="f1yLZGMJBaioODku0iaD-8" value="False" style="text;html=1;strokeColor=none;fillColor=none;align=center;verticalAlign=middle;whiteSpace=wrap;rounded=0;" vertex="1" parent="1">
          <mxGeometry x="590" y="550" width="40" height="20" as="geometry" />
        </mxCell>
        <mxCell id="f1yLZGMJBaioODku0iaD-9" value="True" style="text;html=1;strokeColor=none;fillColor=none;align=center;verticalAlign=middle;whiteSpace=wrap;rounded=0;" vertex="1" parent="1">
          <mxGeometry x="202" y="550" width="40" height="20" as="geometry" />
        </mxCell>
        <mxCell id="f1yLZGMJBaioODku0iaD-55" style="edgeStyle=orthogonalEdgeStyle;rounded=0;orthogonalLoop=1;jettySize=auto;html=1;exitX=1;exitY=0.5;exitDx=0;exitDy=0;entryX=0.5;entryY=0;entryDx=0;entryDy=0;" edge="1" parent="1" source="f1yLZGMJBaioODku0iaD-10" target="f1yLZGMJBaioODku0iaD-16">
          <mxGeometry relative="1" as="geometry" />
        </mxCell>
        <mxCell id="f1yLZGMJBaioODku0iaD-56" style="edgeStyle=orthogonalEdgeStyle;rounded=0;orthogonalLoop=1;jettySize=auto;html=1;exitX=0;exitY=0.5;exitDx=0;exitDy=0;" edge="1" parent="1" source="f1yLZGMJBaioODku0iaD-10" target="f1yLZGMJBaioODku0iaD-15">
          <mxGeometry relative="1" as="geometry" />
        </mxCell>
        <mxCell id="f1yLZGMJBaioODku0iaD-10" value="op=&quot;+&quot;" style="rhombus;whiteSpace=wrap;html=1;" vertex="1" parent="1">
          <mxGeometry x="-65" y="780" width="250" height="110" as="geometry" />
        </mxCell>
        <mxCell id="f1yLZGMJBaioODku0iaD-11" value="False" style="text;html=1;strokeColor=none;fillColor=none;align=center;verticalAlign=middle;whiteSpace=wrap;rounded=0;" vertex="1" parent="1">
          <mxGeometry x="180" y="800" width="40" height="20" as="geometry" />
        </mxCell>
        <mxCell id="f1yLZGMJBaioODku0iaD-12" value="True" style="text;html=1;strokeColor=none;fillColor=none;align=center;verticalAlign=middle;whiteSpace=wrap;rounded=0;" vertex="1" parent="1">
          <mxGeometry x="-90" y="800" width="40" height="20" as="geometry" />
        </mxCell>
        <mxCell id="f1yLZGMJBaioODku0iaD-34" style="edgeStyle=orthogonalEdgeStyle;rounded=0;orthogonalLoop=1;jettySize=auto;html=1;exitX=0.5;exitY=1;exitDx=0;exitDy=0;" edge="1" parent="1" source="f1yLZGMJBaioODku0iaD-14" target="f1yLZGMJBaioODku0iaD-10">
          <mxGeometry relative="1" as="geometry" />
        </mxCell>
        <mxCell id="f1yLZGMJBaioODku0iaD-14" value="Ввод:&lt;br&gt;a,b" style="shape=parallelogram;perimeter=parallelogramPerimeter;whiteSpace=wrap;html=1;fixedSize=1;" vertex="1" parent="1">
          <mxGeometry x="-50" y="660" width="220" height="70" as="geometry" />
        </mxCell>
        <mxCell id="f1yLZGMJBaioODku0iaD-58" style="edgeStyle=orthogonalEdgeStyle;rounded=0;orthogonalLoop=1;jettySize=auto;html=1;exitX=0.5;exitY=1;exitDx=0;exitDy=0;" edge="1" parent="1" source="f1yLZGMJBaioODku0iaD-15">
          <mxGeometry relative="1" as="geometry">
            <mxPoint x="290" y="250" as="targetPoint" />
            <Array as="points">
              <mxPoint x="-170" y="1010" />
              <mxPoint x="-310" y="1010" />
              <mxPoint x="-310" y="250" />
            </Array>
          </mxGeometry>
        </mxCell>
        <mxCell id="f1yLZGMJBaioODku0iaD-15" value="Вывод:&lt;br&gt;a+b" style="shape=parallelogram;perimeter=parallelogramPerimeter;whiteSpace=wrap;html=1;fixedSize=1;" vertex="1" parent="1">
          <mxGeometry x="-280" y="920" width="220" height="70" as="geometry" />
        </mxCell>
        <mxCell id="f1yLZGMJBaioODku0iaD-53" style="edgeStyle=orthogonalEdgeStyle;rounded=0;orthogonalLoop=1;jettySize=auto;html=1;exitX=0;exitY=0.5;exitDx=0;exitDy=0;entryX=0.5;entryY=0;entryDx=0;entryDy=0;" edge="1" parent="1" source="f1yLZGMJBaioODku0iaD-16" target="f1yLZGMJBaioODku0iaD-19">
          <mxGeometry relative="1" as="geometry" />
        </mxCell>
        <mxCell id="f1yLZGMJBaioODku0iaD-54" style="edgeStyle=orthogonalEdgeStyle;rounded=0;orthogonalLoop=1;jettySize=auto;html=1;exitX=1;exitY=0.5;exitDx=0;exitDy=0;entryX=0.5;entryY=0;entryDx=0;entryDy=0;" edge="1" parent="1" source="f1yLZGMJBaioODku0iaD-16" target="f1yLZGMJBaioODku0iaD-20">
          <mxGeometry relative="1" as="geometry" />
        </mxCell>
        <mxCell id="f1yLZGMJBaioODku0iaD-16" value="op=&quot;-&quot;" style="rhombus;whiteSpace=wrap;html=1;" vertex="1" parent="1">
          <mxGeometry x="-65" y="1055" width="250" height="110" as="geometry" />
        </mxCell>
        <mxCell id="f1yLZGMJBaioODku0iaD-17" value="False" style="text;html=1;strokeColor=none;fillColor=none;align=center;verticalAlign=middle;whiteSpace=wrap;rounded=0;" vertex="1" parent="1">
          <mxGeometry x="147" y="1055" width="40" height="20" as="geometry" />
        </mxCell>
        <mxCell id="f1yLZGMJBaioODku0iaD-18" value="True" style="text;html=1;strokeColor=none;fillColor=none;align=center;verticalAlign=middle;whiteSpace=wrap;rounded=0;" vertex="1" parent="1">
          <mxGeometry x="-50" y="1050" width="40" height="20" as="geometry" />
        </mxCell>
        <mxCell id="f1yLZGMJBaioODku0iaD-59" style="edgeStyle=orthogonalEdgeStyle;rounded=0;orthogonalLoop=1;jettySize=auto;html=1;exitX=0.5;exitY=1;exitDx=0;exitDy=0;" edge="1" parent="1" source="f1yLZGMJBaioODku0iaD-19">
          <mxGeometry relative="1" as="geometry">
            <mxPoint x="290" y="248.6666259765625" as="targetPoint" />
            <Array as="points">
              <mxPoint x="-160" y="1330" />
              <mxPoint x="-310" y="1330" />
              <mxPoint x="-310" y="249" />
            </Array>
          </mxGeometry>
        </mxCell>
        <mxCell id="f1yLZGMJBaioODku0iaD-19" value="Вывод:&lt;br&gt;a-b" style="shape=parallelogram;perimeter=parallelogramPerimeter;whiteSpace=wrap;html=1;fixedSize=1;" vertex="1" parent="1">
          <mxGeometry x="-270" y="1240" width="220" height="70" as="geometry" />
        </mxCell>
        <mxCell id="f1yLZGMJBaioODku0iaD-51" style="edgeStyle=orthogonalEdgeStyle;rounded=0;orthogonalLoop=1;jettySize=auto;html=1;exitX=1;exitY=0.5;exitDx=0;exitDy=0;entryX=0.5;entryY=0;entryDx=0;entryDy=0;" edge="1" parent="1" source="f1yLZGMJBaioODku0iaD-20" target="f1yLZGMJBaioODku0iaD-24">
          <mxGeometry relative="1" as="geometry" />
        </mxCell>
        <mxCell id="f1yLZGMJBaioODku0iaD-52" style="edgeStyle=orthogonalEdgeStyle;rounded=0;orthogonalLoop=1;jettySize=auto;html=1;exitX=0;exitY=0.5;exitDx=0;exitDy=0;" edge="1" parent="1" source="f1yLZGMJBaioODku0iaD-20" target="f1yLZGMJBaioODku0iaD-23">
          <mxGeometry relative="1" as="geometry" />
        </mxCell>
        <mxCell id="f1yLZGMJBaioODku0iaD-20" value="op=&quot;*&quot;" style="rhombus;whiteSpace=wrap;html=1;" vertex="1" parent="1">
          <mxGeometry x="-65" y="1345" width="250" height="110" as="geometry" />
        </mxCell>
        <mxCell id="f1yLZGMJBaioODku0iaD-21" value="False" style="text;html=1;strokeColor=none;fillColor=none;align=center;verticalAlign=middle;whiteSpace=wrap;rounded=0;" vertex="1" parent="1">
          <mxGeometry x="180" y="1370" width="40" height="20" as="geometry" />
        </mxCell>
        <mxCell id="f1yLZGMJBaioODku0iaD-22" value="True" style="text;html=1;strokeColor=none;fillColor=none;align=center;verticalAlign=middle;whiteSpace=wrap;rounded=0;" vertex="1" parent="1">
          <mxGeometry x="-120" y="1370" width="40" height="20" as="geometry" />
        </mxCell>
        <mxCell id="f1yLZGMJBaioODku0iaD-60" style="edgeStyle=orthogonalEdgeStyle;rounded=0;orthogonalLoop=1;jettySize=auto;html=1;exitX=0.5;exitY=1;exitDx=0;exitDy=0;" edge="1" parent="1" source="f1yLZGMJBaioODku0iaD-23">
          <mxGeometry relative="1" as="geometry">
            <mxPoint x="290" y="246" as="targetPoint" />
            <Array as="points">
              <mxPoint x="-160" y="1580" />
              <mxPoint x="-310" y="1580" />
              <mxPoint x="-310" y="246" />
            </Array>
          </mxGeometry>
        </mxCell>
        <mxCell id="f1yLZGMJBaioODku0iaD-23" value="Вывод:&lt;br&gt;a*b" style="shape=parallelogram;perimeter=parallelogramPerimeter;whiteSpace=wrap;html=1;fixedSize=1;" vertex="1" parent="1">
          <mxGeometry x="-270" y="1490" width="220" height="70" as="geometry" />
        </mxCell>
        <mxCell id="f1yLZGMJBaioODku0iaD-50" style="edgeStyle=orthogonalEdgeStyle;rounded=0;orthogonalLoop=1;jettySize=auto;html=1;exitX=0;exitY=0.5;exitDx=0;exitDy=0;entryX=0.5;entryY=0;entryDx=0;entryDy=0;" edge="1" parent="1" source="f1yLZGMJBaioODku0iaD-24" target="f1yLZGMJBaioODku0iaD-41">
          <mxGeometry relative="1" as="geometry" />
        </mxCell>
        <mxCell id="f1yLZGMJBaioODku0iaD-57" style="edgeStyle=orthogonalEdgeStyle;rounded=0;orthogonalLoop=1;jettySize=auto;html=1;exitX=1;exitY=0.5;exitDx=0;exitDy=0;entryX=0;entryY=0.5;entryDx=0;entryDy=0;" edge="1" parent="1" source="f1yLZGMJBaioODku0iaD-24" target="f1yLZGMJBaioODku0iaD-4">
          <mxGeometry relative="1" as="geometry" />
        </mxCell>
        <mxCell id="f1yLZGMJBaioODku0iaD-24" value="op=&quot;/&quot;" style="rhombus;whiteSpace=wrap;html=1;" vertex="1" parent="1">
          <mxGeometry x="-65" y="1625" width="250" height="110" as="geometry" />
        </mxCell>
        <mxCell id="f1yLZGMJBaioODku0iaD-25" value="False" style="text;html=1;strokeColor=none;fillColor=none;align=center;verticalAlign=middle;whiteSpace=wrap;rounded=0;" vertex="1" parent="1">
          <mxGeometry x="180" y="1640" width="40" height="20" as="geometry" />
        </mxCell>
        <mxCell id="f1yLZGMJBaioODku0iaD-26" value="True" style="text;html=1;strokeColor=none;fillColor=none;align=center;verticalAlign=middle;whiteSpace=wrap;rounded=0;" vertex="1" parent="1">
          <mxGeometry x="-120" y="1640" width="40" height="20" as="geometry" />
        </mxCell>
        <mxCell id="f1yLZGMJBaioODku0iaD-62" style="edgeStyle=orthogonalEdgeStyle;rounded=0;orthogonalLoop=1;jettySize=auto;html=1;exitX=0.5;exitY=1;exitDx=0;exitDy=0;" edge="1" parent="1" source="f1yLZGMJBaioODku0iaD-27">
          <mxGeometry relative="1" as="geometry">
            <mxPoint x="290.66650390625" y="250" as="targetPoint" />
            <Array as="points">
              <mxPoint x="-363" y="1990" />
              <mxPoint x="-550" y="1990" />
              <mxPoint x="-550" y="250" />
            </Array>
          </mxGeometry>
        </mxCell>
        <mxCell id="f1yLZGMJBaioODku0iaD-27" value="Вывод:&lt;br&gt;a/b" style="shape=parallelogram;perimeter=parallelogramPerimeter;whiteSpace=wrap;html=1;fixedSize=1;" vertex="1" parent="1">
          <mxGeometry x="-473" y="1900" width="220" height="70" as="geometry" />
        </mxCell>
        <mxCell id="f1yLZGMJBaioODku0iaD-46" style="edgeStyle=orthogonalEdgeStyle;rounded=0;orthogonalLoop=1;jettySize=auto;html=1;exitX=1;exitY=0.5;exitDx=0;exitDy=0;" edge="1" parent="1" source="f1yLZGMJBaioODku0iaD-41" target="f1yLZGMJBaioODku0iaD-44">
          <mxGeometry relative="1" as="geometry" />
        </mxCell>
        <mxCell id="f1yLZGMJBaioODku0iaD-47" style="edgeStyle=orthogonalEdgeStyle;rounded=0;orthogonalLoop=1;jettySize=auto;html=1;exitX=0;exitY=0.5;exitDx=0;exitDy=0;entryX=0.5;entryY=0;entryDx=0;entryDy=0;" edge="1" parent="1" source="f1yLZGMJBaioODku0iaD-41" target="f1yLZGMJBaioODku0iaD-27">
          <mxGeometry relative="1" as="geometry" />
        </mxCell>
        <mxCell id="f1yLZGMJBaioODku0iaD-41" value="b=0" style="rhombus;whiteSpace=wrap;html=1;" vertex="1" parent="1">
          <mxGeometry x="-291" y="1750" width="250" height="110" as="geometry" />
        </mxCell>
        <mxCell id="f1yLZGMJBaioODku0iaD-42" value="False" style="text;html=1;strokeColor=none;fillColor=none;align=center;verticalAlign=middle;whiteSpace=wrap;rounded=0;" vertex="1" parent="1">
          <mxGeometry x="-346" y="1760" width="40" height="20" as="geometry" />
        </mxCell>
        <mxCell id="f1yLZGMJBaioODku0iaD-43" value="True" style="text;html=1;strokeColor=none;fillColor=none;align=center;verticalAlign=middle;whiteSpace=wrap;rounded=0;" vertex="1" parent="1">
          <mxGeometry x="-26" y="1760" width="40" height="20" as="geometry" />
        </mxCell>
        <mxCell id="f1yLZGMJBaioODku0iaD-61" style="edgeStyle=orthogonalEdgeStyle;rounded=0;orthogonalLoop=1;jettySize=auto;html=1;exitX=0.5;exitY=1;exitDx=0;exitDy=0;" edge="1" parent="1" source="f1yLZGMJBaioODku0iaD-44">
          <mxGeometry relative="1" as="geometry">
            <mxPoint x="293.3333740234375" y="250" as="targetPoint" />
            <Array as="points">
              <mxPoint x="37" y="1990" />
              <mxPoint x="-550" y="1990" />
              <mxPoint x="-550" y="250" />
            </Array>
          </mxGeometry>
        </mxCell>
        <mxCell id="f1yLZGMJBaioODku0iaD-44" value="Вывод:&lt;br&gt;Division by zero" style="shape=parallelogram;perimeter=parallelogramPerimeter;whiteSpace=wrap;html=1;fixedSize=1;" vertex="1" parent="1">
          <mxGeometry x="-73" y="1900" width="220" height="70" as="geometry" />
        </mxCell>
        <mxCell id="f1yLZGMJBaioODku0iaD-72" style="edgeStyle=orthogonalEdgeStyle;rounded=0;orthogonalLoop=1;jettySize=auto;html=1;exitX=0;exitY=0.5;exitDx=0;exitDy=0;entryX=0.545;entryY=0.005;entryDx=0;entryDy=0;entryPerimeter=0;" edge="1" parent="1" source="f1yLZGMJBaioODku0iaD-63" target="f1yLZGMJBaioODku0iaD-70">
          <mxGeometry relative="1" as="geometry" />
        </mxCell>
        <mxCell id="f1yLZGMJBaioODku0iaD-75" style="edgeStyle=orthogonalEdgeStyle;rounded=0;orthogonalLoop=1;jettySize=auto;html=1;exitX=1;exitY=0.5;exitDx=0;exitDy=0;entryX=0.5;entryY=0;entryDx=0;entryDy=0;" edge="1" parent="1" source="f1yLZGMJBaioODku0iaD-63" target="f1yLZGMJBaioODku0iaD-73">
          <mxGeometry relative="1" as="geometry" />
        </mxCell>
        <mxCell id="f1yLZGMJBaioODku0iaD-63" value="op=&quot;0&quot;" style="rhombus;whiteSpace=wrap;html=1;" vertex="1" parent="1">
          <mxGeometry x="615" y="650" width="250" height="110" as="geometry" />
        </mxCell>
        <mxCell id="f1yLZGMJBaioODku0iaD-64" value="False" style="text;html=1;strokeColor=none;fillColor=none;align=center;verticalAlign=middle;whiteSpace=wrap;rounded=0;" vertex="1" parent="1">
          <mxGeometry x="560" y="660" width="40" height="20" as="geometry" />
        </mxCell>
        <mxCell id="f1yLZGMJBaioODku0iaD-65" value="True" style="text;html=1;strokeColor=none;fillColor=none;align=center;verticalAlign=middle;whiteSpace=wrap;rounded=0;" vertex="1" parent="1">
          <mxGeometry x="880" y="660" width="40" height="20" as="geometry" />
        </mxCell>
        <mxCell id="f1yLZGMJBaioODku0iaD-71" style="edgeStyle=orthogonalEdgeStyle;rounded=0;orthogonalLoop=1;jettySize=auto;html=1;exitX=0.5;exitY=1;exitDx=0;exitDy=0;" edge="1" parent="1" source="f1yLZGMJBaioODku0iaD-70">
          <mxGeometry relative="1" as="geometry">
            <mxPoint x="290" y="247.33334350585938" as="targetPoint" />
            <Array as="points">
              <mxPoint x="460" y="850" />
              <mxPoint x="240" y="850" />
              <mxPoint x="240" y="247" />
            </Array>
          </mxGeometry>
        </mxCell>
        <mxCell id="f1yLZGMJBaioODku0iaD-70" value="Вывод:&lt;br&gt;Wrong operation" style="shape=parallelogram;perimeter=parallelogramPerimeter;whiteSpace=wrap;html=1;fixedSize=1;" vertex="1" parent="1">
          <mxGeometry x="350" y="760" width="220" height="70" as="geometry" />
        </mxCell>
        <mxCell id="f1yLZGMJBaioODku0iaD-76" style="edgeStyle=orthogonalEdgeStyle;rounded=0;orthogonalLoop=1;jettySize=auto;html=1;exitX=0.5;exitY=1;exitDx=0;exitDy=0;entryX=0.5;entryY=0;entryDx=0;entryDy=0;" edge="1" parent="1" source="f1yLZGMJBaioODku0iaD-73" target="f1yLZGMJBaioODku0iaD-74">
          <mxGeometry relative="1" as="geometry" />
        </mxCell>
        <mxCell id="f1yLZGMJBaioODku0iaD-73" value="Вывод:&lt;br&gt;Exit" style="shape=parallelogram;perimeter=parallelogramPerimeter;whiteSpace=wrap;html=1;fixedSize=1;" vertex="1" parent="1">
          <mxGeometry x="827" y="760" width="220" height="70" as="geometry" />
        </mxCell>
        <mxCell id="f1yLZGMJBaioODku0iaD-74" value="Конец" style="ellipse;whiteSpace=wrap;html=1;" vertex="1" parent="1">
          <mxGeometry x="827" y="900" width="220" height="80" as="geometry" />
        </mxCell>
      </root>
    </mxGraphModel>
  </diagram>
</mxfile>
